PathFileType	4	(X/Y/Z)	D:\Share\Shared_Data\Ergonomics\Sit To Stand Pertubation\S2\Perturbed.trc
DataRate	CameraRate	NumFrames	NumMarkers	Units	OrigDataRate	OrigDataStartFrame	OrigNumFrames	
100	100	8	18	m	100	18728	191
Frame#	Time	R_Toe			R_ASIS			R_Pelvis			V_Sacral			L_Pelvis			L_ASIS			Clavical			R_Acromium			L_Acromium			Sternum			Torso			R_Thigh_Med			R_Thigh_Lat			R_Thigh			R_Shank_Med			R_Shank_Lat			R_Shank			R_Heel			
		X1	Y1	Z1	X2	Y2	Z2	X3	Y3	Z3	X4	Y4	Z4	X5	Y5	Z5	X6	Y6	Z6	X7	Y7	Z7	X8	Y8	Z8	X9	Y9	Z9	X10	Y10	Z10	X11	Y11	Z11	X12	Y12	Z12	X13	Y13	Z13	X14	Y14	Z14	X15	Y15	Z15	X16	Y16	Z16	X17	Y17	Z17	X18	Y18	Z18	

18728	187.27	0.4161481	0.06502655	0.13650966	0.40249332	1.0280961	0.12176723	0.32745087	1.0256342	0.17069641	0.18042442	1.0140428	0.011739136	0.26867874	1.0276311	-0.1730807	0.36547583	1.0417659	-0.15285101	0.37884308	1.4609713	-0.013234683	0.28449664	1.4800114	0.19826758	0.25555801	1.4851339	-0.19211868	0.43362726	1.3041481	-0.020931698	0.38412308	1.4228831	-0.12997681	0.32200461	0.49337357	0.075238068	0.31225397	0.51905139	0.16403792	0.40528839	0.67747089	0.14180939	0.28234775	0.10621654	0.093528259	0.25890488	0.10101049	0.1845148	0.27914566	0.37418436	0.19918893	0.17937302	0.058994942	0.13477811
18729	187.28	0.41615579	0.065009636	0.13650667	0.40316675	1.0282029	0.12186346	0.32804861	1.0256281	0.17071767	0.18119781	1.0137613	0.011628058	0.2695079	1.0274219	-0.17307455	0.36627048	1.0416857	-0.15277893	0.37857657	1.4610035	-0.013290485	0.284022	1.479853	0.19818224	0.25528845	1.4848698	-0.19219208	0.43376233	1.3043195	-0.020955523	0.38401303	1.4229257	-0.1300477	0.3228754	0.49339679	0.075281738	0.31307672	0.51904156	0.16405685	0.40620847	0.67755573	0.14187271	0.28238876	0.10622475	0.093508163	0.25895007	0.10103162	0.18449185	0.27975928	0.37418915	0.19918143	0.17935699	0.059281597	0.13487973
18730	187.29	0.41616357	0.064993088	0.13650438	0.40379269	1.028303	0.12195383	0.32861646	1.0256187	0.17074741	0.1819068	1.0134568	0.011562229	0.27024713	1.0272139	-0.17304045	0.36697705	1.0416124	-0.15271152	0.37834921	1.4610214	-0.013332903	0.28357275	1.4796991	0.1980977	0.25510263	1.484616	-0.1922675	0.43389731	1.3044614	-0.020963118	0.38394672	1.4229464	-0.13010406	0.32371759	0.49341745	0.07532235	0.31387756	0.51902972	0.16407498	0.40709055	0.67763641	0.14192168	0.28242935	0.10623272	0.093489021	0.25899484	0.10105246	0.18446829	0.2803584	0.37419257	0.19917451	0.17933675	0.059562576	0.13498203
18731	187.3	0.41617169	0.064976952	0.13650269	0.40437439	1.0283926	0.12203979	0.3291593	1.0256038	0.17078453	0.18255772	1.0131351	0.011541684	0.2709039	1.0270063	-0.17298572	0.36760376	1.0415455	-0.15264867	0.37815613	1.4610251	-0.01336414	0.28315335	1.4795492	0.19801372	0.25498965	1.4843781	-0.19234723	0.4340274	1.3045739	-0.020957422	0.38391678	1.4229489	-0.13014781	0.32451984	0.49343665	0.075360596	0.31464066	0.51901501	0.1640921	0.40792474	0.67770807	0.14196555	0.28246985	0.10623908	0.093469307	0.25903799	0.1010723	0.18444255	0.28092691	0.37419528	0.19916675	0.17931396	0.059827568	0.13508037
18732	187.31	0.41618018	0.064961288	0.13650104	0.40491583	1.0284686	0.12212267	0.3296828	1.0255829	0.17082767	0.18315761	1.0128057	0.011562677	0.27148853	1.0268005	-0.17291963	0.36816272	1.0414838	-0.1525907	0.37799292	1.4610153	-0.013386236	0.28276645	1.4794027	0.19792963	0.25493929	1.4841615	-0.19243274	0.43414825	1.304658	-0.020940691	0.3839162	1.422936	-0.13018068	0.32527255	0.49345456	0.075395897	0.31535275	0.51899664	0.16410823	0.40870139	0.67776782	0.14201247	0.28251031	0.10624255	0.093447517	0.25907858	0.10109053	0.18441336	0.28145294	0.374198	0.19915565	0.17929045	0.060070541	0.13517171
18733	187.32	0.41618851	0.064946365	0.13649867	0.4054223	1.0285299	0.12220353	0.33019556	1.0255579	0.17087529	0.18371394	1.0124814	0.011618123	0.27201328	1.0265981	-0.17285123	0.36866763	1.0414257	-0.15253793	0.37785574	1.4609926	-0.013401236	0.28241284	1.4792604	0.19784479	0.25494235	1.483969	-0.1925249	0.43425714	1.3047162	-0.020914698	0.38393872	1.4229117	-0.13020433	0.32596918	0.49347012	0.075426575	0.31600388	0.51897479	0.16412347	0.40941107	0.67781403	0.14206808	0.28254996	0.10624211	0.093422417	0.2591156	0.10110687	0.18438004	0.28192825	0.37420148	0.19913979	0.17926799	0.060288158	0.13525423
18734	187.33	0.41619623	0.064932686	0.13649506	0.40589893	1.0285767	0.12228315	0.33070773	1.0255322	0.17092577	0.18423387	1.0121766	0.01169836	0.27249158	1.0264032	-0.17278719	0.36913199	1.0413698	-0.15249037	0.37774167	1.460959	-0.013410926	0.28209204	1.4791235	0.19775926	0.25499055	1.4838016	-0.19262338	0.4343533	1.3047527	-0.020881189	0.38397955	1.4228785	-0.13022083	0.3266062	0.49348184	0.075451134	0.31658713	0.51895007	0.16413774	0.41004526	0.67784753	0.14213495	0.28258749	0.10623725	0.093393272	0.25914807	0.10112147	0.18434251	0.28234756	0.37420639	0.19911917	0.17924774	0.060479733	0.13532718
18735	187.34	0.41620288	0.064920944	0.13649028	0.40635043	1.0286106	0.12236218	0.33122839	1.0255107	0.17097739	0.18472359	1.0119046	0.011792304	0.27293652	1.0262207	-0.17273067	0.36956723	1.0413154	-0.1524472	0.37764838	1.4609164	-0.013416677	0.28180319	1.4789948	0.19767365	0.25507605	1.4836591	-0.1927271	0.4344379	1.3047726	-0.020841961	0.38403546	1.422839	-0.13023233	0.32718243	0.49348871	0.075469627	0.31709824	0.51892389	0.1641508	0.41059879	0.67787152	0.14221304	0.2826218	0.10622827	0.093360161	0.25917477	0.10113473	0.18430116	0.28270831	0.37421338	0.19909476	0.17923012	0.0606465	0.13539046
